<svg
  xmlns="http://www.w3.org/2000/svg"
  xmlns:xlink="http://www.w3.org/1999/xlink"
>
  <defs>
    <symbol
      id="resend"
      width="70"
      height="17"
      viewBox="0 0 77 19"
      fill="none"
      xmlns="http://www.w3.org/2000/svg"
      class="text-neutral-900 dark:text-neutral-100"
    >
      <g clip-path="url(#clip0_52_626)">
        <path
          d="M0.97168 17.8125V1.1875H8.3163C9.34297 1.1875 10.2749 1.425 11.112 1.9C11.9491 2.35917 12.6046 2.98458 13.0785 3.77625C13.5681 4.56792 13.8129 5.47042 13.8129 6.48375C13.8129 7.48125 13.5681 8.39167 13.0785 9.215C12.6046 10.0225 11.9491 10.6637 11.112 11.1387C10.2749 11.6137 9.34297 11.8512 8.3163 11.8512H4.40707V17.8125H0.97168ZM10.3775 17.8125L6.1603 10.3075L9.80891 9.71375L14.5 17.8362L10.3775 17.8125ZM4.40707 8.95375H8.15045C8.57691 8.95375 8.94809 8.85875 9.26399 8.66875C9.59568 8.46292 9.8484 8.18583 10.0221 7.8375C10.1959 7.47334 10.2828 7.06959 10.2828 6.62625C10.2828 6.15125 10.1801 5.73959 9.97476 5.39125C9.76943 5.04292 9.46932 4.77375 9.07445 4.58375C8.67958 4.37792 8.22153 4.275 7.7003 4.275H4.40707V8.95375Z"
          fill="currentcolor"
        />
        <path
          d="M21.3865 18.05C20.0281 18.05 18.8355 17.7729 17.8088 17.2187C16.798 16.6645 16.0083 15.9045 15.4396 14.9387C14.8868 13.9729 14.6104 12.8645 14.6104 11.6137C14.6104 10.6321 14.7684 9.7375 15.0842 8.93C15.4001 8.1225 15.8424 7.42584 16.411 6.84C16.9796 6.23834 17.6509 5.77917 18.4249 5.4625C19.2146 5.13 20.0675 4.96375 20.9837 4.96375C21.8366 4.96375 22.6263 5.12209 23.3529 5.43875C24.0795 5.75542 24.7034 6.19875 25.2246 6.76875C25.7616 7.32292 26.1723 7.98792 26.4566 8.76375C26.7409 9.52375 26.8672 10.3471 26.8357 11.2337L26.812 12.2787H16.7428L16.1977 10.2125H24.04L23.6609 10.64V10.1175C23.6293 9.69 23.4871 9.31 23.2344 8.9775C22.9975 8.62917 22.6895 8.36 22.3105 8.17C21.9314 7.96417 21.5048 7.86125 21.031 7.86125C20.3361 7.86125 19.7438 7.99584 19.254 8.265C18.7802 8.53417 18.417 8.93 18.1642 9.4525C17.9115 9.975 17.7851 10.6083 17.7851 11.3525C17.7851 12.1125 17.9431 12.7695 18.2591 13.3237C18.5908 13.8779 19.0488 14.3133 19.6332 14.63C20.2334 14.9308 20.9362 15.0812 21.7417 15.0812C22.2946 15.0812 22.8001 14.9942 23.2582 14.82C23.7161 14.6458 24.2057 14.345 24.7271 13.9175L26.3382 16.1737C25.8801 16.5854 25.3746 16.9337 24.8219 17.2187C24.269 17.4879 23.7004 17.6937 23.1159 17.8362C22.5315 17.9787 21.9551 18.05 21.3865 18.05Z"
          fill="currentcolor"
        />
        <path
          d="M32.354 18.05C31.1851 18.05 30.1426 17.86 29.2266 17.48C28.3263 17.0842 27.5997 16.5458 27.0469 15.865L29.1555 14.06C29.6293 14.5825 30.1663 14.9625 30.7666 15.2C31.3668 15.4217 31.9669 15.5325 32.5672 15.5325C32.8041 15.5325 33.0173 15.5088 33.2069 15.4613C33.4122 15.398 33.586 15.3188 33.7281 15.2238C33.8703 15.113 33.973 14.9863 34.0361 14.8438C34.1151 14.6855 34.1546 14.5192 34.1546 14.345C34.1546 13.9967 34.0124 13.7275 33.7281 13.5375C33.5702 13.4425 33.3253 13.3396 32.9936 13.2288C32.662 13.1021 32.2355 12.9675 31.7143 12.825C30.9087 12.6192 30.2216 12.3817 29.653 12.1125C29.1002 11.8275 28.658 11.5109 28.3263 11.1625C28.042 10.83 27.8208 10.4738 27.6629 10.0938C27.5207 9.69797 27.4496 9.26255 27.4496 8.78755C27.4496 8.21755 27.576 7.70297 27.8287 7.2438C28.0814 6.7688 28.429 6.36505 28.8712 6.03255C29.3293 5.70005 29.8505 5.44672 30.4349 5.27255C31.0192 5.08255 31.6352 4.98755 32.2829 4.98755C32.9305 4.98755 33.5623 5.06672 34.1783 5.22505C34.7943 5.38339 35.3629 5.61297 35.8841 5.9138C36.4211 6.1988 36.8871 6.53922 37.282 6.93505L35.4813 8.93005C35.197 8.66088 34.8733 8.41547 34.51 8.1938C34.1625 7.97214 33.7992 7.79797 33.4201 7.6713C33.041 7.54464 32.7014 7.4813 32.4013 7.4813C32.1328 7.4813 31.888 7.50505 31.6669 7.55255C31.4616 7.60005 31.2878 7.67922 31.1456 7.79005C31.0035 7.88505 30.893 8.0038 30.814 8.1463C30.7508 8.2888 30.7192 8.44713 30.7192 8.6213C30.7192 8.79547 30.7586 8.96172 30.8376 9.12005C30.9324 9.27839 31.0588 9.41297 31.2167 9.5238C31.3905 9.6188 31.6432 9.72964 31.9749 9.8563C32.3223 9.98297 32.7884 10.1255 33.3727 10.2838C34.1309 10.4896 34.7706 10.7192 35.2918 10.9725C35.8288 11.2259 36.2552 11.5188 36.5712 11.8513C36.8397 12.1363 37.0371 12.4608 37.1635 12.825C37.2899 13.1892 37.353 13.593 37.353 14.0363C37.353 14.8121 37.1319 15.5008 36.6896 16.1025C36.2632 16.7042 35.6709 17.1792 34.9127 17.5275C34.1546 17.8758 33.3016 18.05 32.354 18.05Z"
          fill="currentcolor"
        />
        <path
          d="M44.5143 18.05C43.1559 18.05 41.9634 17.7729 40.9367 17.2187C39.9259 16.6645 39.1361 15.9045 38.5675 14.9387C38.0147 13.9729 37.7383 12.8645 37.7383 11.6137C37.7383 10.6321 37.8962 9.7375 38.2121 8.93C38.5281 8.1225 38.9703 7.42584 39.5389 6.84C40.1075 6.23834 40.7788 5.77917 41.5527 5.4625C42.3425 5.13 43.1955 4.96375 44.1115 4.96375C44.9644 4.96375 45.7542 5.12209 46.4807 5.43875C47.2073 5.75542 47.8312 6.19875 48.3524 6.76875C48.8894 7.32292 49.3001 7.98792 49.5844 8.76375C49.8687 9.52375 49.9951 10.3471 49.9635 11.2337L49.9398 12.2787H39.8706L39.3257 10.2125H47.1678L46.7887 10.64V10.1175C46.7571 9.69 46.615 9.31 46.3623 8.9775C46.1254 8.62917 45.8174 8.36 45.4383 8.17C45.0592 7.96417 44.6327 7.86125 44.1589 7.86125C43.4639 7.86125 42.8716 7.99584 42.382 8.265C41.9081 8.53417 41.5448 8.93 41.2921 9.4525C41.0394 9.975 40.9131 10.6083 40.9131 11.3525C40.9131 12.1125 41.071 12.7695 41.3869 13.3237C41.7186 13.8779 42.1767 14.3133 42.7611 14.63C43.3613 14.9308 44.0641 15.0812 44.8697 15.0812C45.4225 15.0812 45.9279 14.9942 46.386 14.82C46.8441 14.6458 47.3337 14.345 47.8549 13.9175L49.466 16.1737C49.0079 16.5854 48.5025 16.9337 47.9497 17.2187C47.3968 17.4879 46.8282 17.6937 46.2438 17.8362C45.6594 17.9787 45.0829 18.05 44.5143 18.05Z"
          fill="currentcolor"
        />
        <path
          d="M51.2646 17.8125V5.2488H54.4868L54.5816 7.8138L53.9182 8.0988C54.092 7.5288 54.4 7.01422 54.8422 6.55505C55.3003 6.08005 55.8452 5.70005 56.477 5.41505C57.1088 5.13005 57.7722 4.98755 58.4671 4.98755C59.4148 4.98755 60.2046 5.17755 60.8363 5.55755C61.484 5.93755 61.9658 6.51547 62.2816 7.2913C62.6133 8.0513 62.7791 8.99339 62.7791 10.1175V17.8125H59.4148V10.3788C59.4148 9.8088 59.3359 9.3338 59.1779 8.9538C59.02 8.5738 58.7751 8.29672 58.4434 8.12255C58.1276 7.94838 57.7326 7.86922 57.2588 7.88505C56.8797 7.88505 56.5243 7.94839 56.1926 8.07505C55.8768 8.18588 55.6003 8.35214 55.3634 8.5738C55.1424 8.79547 54.9606 9.0488 54.8185 9.3338C54.6922 9.6188 54.629 9.92755 54.629 10.26V17.8125H52.9705C52.6073 17.8125 52.2834 17.8125 51.9991 17.8125C51.7148 17.8125 51.4701 17.8125 51.2646 17.8125Z"
          fill="currentcolor"
        />
        <path
          d="M69.7228 18.05C68.6172 18.05 67.6301 17.773 66.7613 17.2188C65.9083 16.6488 65.2292 15.8808 64.7237 14.915C64.2341 13.9333 63.9893 12.8013 63.9893 11.5188C63.9893 10.268 64.2341 9.15172 64.7237 8.17005C65.2292 7.17255 65.9083 6.39672 66.7613 5.84255C67.6301 5.27255 68.6172 4.98755 69.7228 4.98755C70.3073 4.98755 70.868 5.08255 71.405 5.27255C71.9578 5.44672 72.4474 5.69214 72.8739 6.0088C73.3162 6.32547 73.6716 6.68172 73.94 7.07755C74.2086 7.45755 74.3587 7.85339 74.3902 8.26505L73.5373 8.4313V0.237549H76.9253V17.8125H73.7268L73.5846 14.915L74.248 14.9863C74.2165 15.3821 74.0744 15.7621 73.8216 16.1263C73.5689 16.4905 73.2293 16.823 72.8028 17.1238C72.3922 17.4088 71.9184 17.6383 71.3813 17.8125C70.86 17.9708 70.3073 18.05 69.7228 18.05ZM70.4809 15.2475C71.1128 15.2475 71.6656 15.0892 72.1394 14.7725C72.6133 14.4558 72.9845 14.0205 73.2529 13.4663C73.5215 12.9121 73.6557 12.263 73.6557 11.5188C73.6557 10.7905 73.5215 10.1492 73.2529 9.59505C72.9845 9.04089 72.6133 8.60547 72.1394 8.2888C71.6656 7.97214 71.1128 7.8138 70.4809 7.8138C69.8492 7.8138 69.2963 7.97214 68.8225 8.2888C68.3645 8.60547 68.0012 9.04089 67.7326 9.59505C67.48 10.1492 67.3536 10.7905 67.3536 11.5188C67.3536 12.263 67.48 12.9121 67.7326 13.4663C68.0012 14.0205 68.3645 14.4558 68.8225 14.7725C69.2963 15.0892 69.8492 15.2475 70.4809 15.2475Z"
          fill="currentcolor"
        />
      </g>
      <defs>
        <clipPath id="clip0_52_626">
          <rect width="77" height="19" fill="white" />
        </clipPath>
      </defs>
    </symbol>
  </defs>
</svg>